<svg xmlns="http://www.w3.org/2000/svg" width="99" height="20" viewBox="0 0 99 20" version="1.1"><g stroke="none" stroke-width="1" fill="none" fill-rule="evenodd"><g  transform="translate(-215.000000, -5.000000)"><g><g transform="translate(215.000000, 5.000000)"><path d="M0.5 2.19L0.5 19.35 9.15 19.35C12.66 19.35 14.67 17.27 14.67 14.49 14.67 12.63 13.75 11.1 12.1 10.33 13.35 9.56 14.03 8.27 14.03 6.72 14.03 4.16 12.08 2.19 8.74 2.19L0.5 2.19ZM4.22 5.12L8.32 5.12C9.59 5.12 10.32 5.89 10.32 7.09 10.32 8.26 9.66 9.01 8.47 9.06L4.22 9.06 4.22 5.12ZM4.22 16.4L4.22 12.05 8.46 12.05C9.86 12.04 10.67 12.9 10.67 14.22 10.67 15.55 9.87 16.4 8.46 16.4L4.22 16.4ZM22.21 2.76L20.42 0.64 16.2 4.17 17.98 6.28 22.21 2.76ZM20.8 19.35L20.8 7.1 17.2 7.1 17.2 19.35 20.8 19.35ZM27.12 1.87L23.51 1.87 23.51 19.35 26.69 19.35 26.85 17.83C27.85 19.06 29.47 19.62 31.04 19.62 34.12 19.62 36.8 17.59 36.8 13.2 36.8 8.99 34.16 6.81 31 6.81 29.66 6.81 28.45 7.19 27.12 8.32L27.12 1.87ZM27.12 11.28C28.08 10.06 28.93 9.65 30.06 9.65 32.08 9.65 33.2 10.89 33.2 13.22 33.2 15.49 32 16.79 29.96 16.79 28.85 16.79 27.78 16.36 27.12 15.16L27.12 11.28ZM42.85 1.87L39.24 1.87 39.24 14.31C39.24 16.33 39.94 17.71 41.14 18.54 42.12 19.23 43.43 19.53 44.96 19.53 45.23 19.53 45.5 19.52 45.79 19.5L45.79 16.84C44.84 16.85 44.1 16.69 43.6 16.28 43.1 15.87 42.85 15.23 42.85 14.31L42.85 1.87ZM49.79 2.04C48.72 2.04 47.85 2.83 47.85 3.8 47.85 4.77 48.72 5.56 49.79 5.56 50.86 5.56 51.73 4.77 51.73 3.8 51.73 2.83 50.86 2.04 49.79 2.04L49.79 2.04ZM51.59 19.35L51.59 7.1 47.98 7.1 47.98 19.35 51.59 19.35ZM55.45 10.34C56.42 9.82 58 9.33 59.4 9.33 60.92 9.33 62.3 9.96 62.34 11.45L62.34 11.98C61.42 11.55 60.27 11.32 59.13 11.32 56.48 11.32 53.84 12.59 53.84 15.49 53.84 18.19 56.17 19.68 58.54 19.68 60.11 19.68 61.57 19.07 62.62 17.85L62.77 19.36 65.95 19.36 65.95 11.52C65.95 8.25 63.15 6.81 60.08 6.81 58.2 6.81 56.21 7.34 54.61 8.2L55.45 10.34ZM62.35 15.83C61.6 16.7 60.6 17.02 59.56 17.02 58.31 17.02 57.21 16.42 57.21 15.28 57.21 14.04 58.43 13.52 59.79 13.52 60.72 13.52 61.67 13.75 62.35 14.16L62.35 15.83Z" id="Bíblia-Copy-3" fill="#F5B53D"/><path d="M76.72 6.78C72.49 6.78 70.15 9.6 70.15 13.23 70.15 16.85 72.49 19.67 76.72 19.67 81 19.67 83.3 16.92 83.3 13.23 83.3 9.48 80.9 6.78 76.72 6.78L76.72 6.78ZM76.72 8.35C79.57 8.35 81.34 10.2 81.34 13.23 81.34 16.22 79.64 18.1 76.72 18.1 73.85 18.1 72.11 16.16 72.11 13.23 72.11 10.3 73.85 8.35 76.72 8.35L76.72 8.35ZM88.29 7.1L86.54 7.1 86.54 19.35 88.51 19.35 88.51 10.35C90.1 8.87 91.06 8.35 92.47 8.35 94.34 8.35 96.22 9.43 96.22 11.73L96.22 19.35 98.18 19.35 98.18 11.36C98.18 8.24 95.47 6.77 92.96 6.77 91.1 6.77 89.91 7.55 88.37 8.88L88.29 7.1Z" id="on-copy-2" fill="#F2F2F2"/></g></g></g></g></svg>